<svg xmlns="http://www.w3.org/2000/svg" xmlns:xlink="http://www.w3.org/1999/xlink" width="1920" zoomAndPan="magnify" viewBox="0 0 1440 1439.999935" height="1920" preserveAspectRatio="xMidYMid meet" version="1.0"><defs><g/><clipPath id="066c8ae0f1"><path d="M 753.699219 376.007812 L 1421.199219 376.007812 L 1421.199219 1043.507812 L 753.699219 1043.507812 Z M 753.699219 376.007812 " clip-rule="nonzero"/></clipPath><clipPath id="ed0ebedb60"><rect x="0" width="738" y="0" height="1440"/></clipPath></defs><g clip-path="url(#066c8ae0f1)"><path fill="#38b6ff" d="M 1172.820312 1028.109375 L 1172.820312 795.132812 L 1405.796875 795.132812 C 1406.824219 795.132812 1407.839844 795.03125 1408.847656 794.832031 C 1409.855469 794.628906 1410.832031 794.332031 1411.78125 793.9375 C 1412.726562 793.542969 1413.628906 793.0625 1414.480469 792.488281 C 1415.332031 791.917969 1416.121094 791.269531 1416.84375 790.542969 C 1417.570312 789.8125 1418.214844 789.023438 1418.785156 788.167969 C 1419.351562 787.3125 1419.832031 786.410156 1420.21875 785.460938 C 1420.609375 784.511719 1420.902344 783.535156 1421.097656 782.527344 C 1421.296875 781.519531 1421.390625 780.5 1421.386719 779.476562 L 1421.386719 640.230469 C 1421.386719 639.207031 1421.289062 638.195312 1421.085938 637.191406 C 1420.886719 636.1875 1420.59375 635.210938 1420.199219 634.265625 C 1419.808594 633.320312 1419.328125 632.421875 1418.761719 631.570312 C 1418.191406 630.71875 1417.546875 629.933594 1416.820312 629.210938 C 1416.097656 628.484375 1415.308594 627.839844 1414.460938 627.269531 C 1413.609375 626.703125 1412.710938 626.222656 1411.765625 625.828125 C 1410.820312 625.4375 1409.84375 625.144531 1408.839844 624.941406 C 1407.835938 624.742188 1406.820312 624.644531 1405.796875 624.644531 L 1172.820312 624.644531 L 1172.820312 391.597656 C 1172.820312 390.570312 1172.722656 389.554688 1172.519531 388.546875 C 1172.320312 387.542969 1172.023438 386.566406 1171.628906 385.617188 C 1171.234375 384.667969 1170.75 383.769531 1170.179688 382.917969 C 1169.609375 382.0625 1168.957031 381.277344 1168.230469 380.550781 C 1167.503906 379.828125 1166.714844 379.179688 1165.859375 378.613281 C 1165.003906 378.046875 1164.101562 377.566406 1163.152344 377.175781 C 1162.203125 376.785156 1161.222656 376.492188 1160.214844 376.296875 C 1159.207031 376.101562 1158.191406 376.003906 1157.164062 376.007812 L 1017.921875 376.007812 C 1016.898438 376.007812 1015.882812 376.109375 1014.878906 376.308594 C 1013.875 376.507812 1012.902344 376.804688 1011.957031 377.195312 C 1011.011719 377.589844 1010.113281 378.066406 1009.261719 378.636719 C 1008.410156 379.207031 1007.621094 379.851562 1006.898438 380.574219 C 1006.175781 381.300781 1005.527344 382.085938 1004.960938 382.9375 C 1004.390625 383.789062 1003.910156 384.6875 1003.519531 385.632812 C 1003.128906 386.578125 1002.832031 387.554688 1002.632812 388.558594 C 1002.433594 389.5625 1002.332031 390.574219 1002.332031 391.597656 L 1002.332031 624.574219 L 769.289062 624.574219 C 768.261719 624.574219 767.246094 624.675781 766.238281 624.875 C 765.230469 625.078125 764.253906 625.375 763.308594 625.769531 C 762.359375 626.164062 761.457031 626.644531 760.605469 627.21875 C 759.753906 627.789062 758.964844 628.4375 758.242188 629.164062 C 757.515625 629.894531 756.871094 630.683594 756.304688 631.539062 C 755.734375 632.394531 755.257812 633.296875 754.867188 634.246094 C 754.476562 635.195312 754.183594 636.171875 753.988281 637.179688 C 753.792969 638.1875 753.695312 639.207031 753.699219 640.230469 L 753.699219 779.476562 C 753.699219 780.5 753.800781 781.511719 754 782.515625 C 754.199219 783.519531 754.496094 784.496094 754.886719 785.441406 C 755.277344 786.386719 755.757812 787.285156 756.328125 788.136719 C 756.894531 788.988281 757.542969 789.773438 758.265625 790.496094 C 758.988281 791.222656 759.777344 791.867188 760.628906 792.4375 C 761.480469 793.003906 762.378906 793.484375 763.324219 793.875 C 764.269531 794.269531 765.242188 794.5625 766.246094 794.765625 C 767.25 794.964844 768.265625 795.0625 769.289062 795.0625 L 1002.265625 795.0625 L 1002.265625 1028.039062 C 1002.261719 1028.554688 1002.285156 1029.066406 1002.335938 1029.578125 C 1002.382812 1030.089844 1002.457031 1030.597656 1002.554688 1031.101562 C 1002.652344 1031.605469 1002.777344 1032.101562 1002.925781 1032.59375 C 1003.070312 1033.085938 1003.242188 1033.566406 1003.4375 1034.042969 C 1003.632812 1034.515625 1003.851562 1034.980469 1004.09375 1035.433594 C 1004.335938 1035.886719 1004.597656 1036.328125 1004.882812 1036.753906 C 1005.167969 1037.183594 1005.472656 1037.59375 1005.796875 1037.992188 C 1006.125 1038.386719 1006.46875 1038.769531 1006.832031 1039.132812 C 1007.195312 1039.496094 1007.574219 1039.839844 1007.972656 1040.164062 C 1008.367188 1040.488281 1008.78125 1040.792969 1009.207031 1041.078125 C 1009.632812 1041.363281 1010.074219 1041.628906 1010.527344 1041.867188 C 1010.980469 1042.109375 1011.445312 1042.328125 1011.917969 1042.523438 C 1012.394531 1042.71875 1012.878906 1042.890625 1013.371094 1043.039062 C 1013.859375 1043.1875 1014.359375 1043.308594 1014.863281 1043.40625 C 1015.367188 1043.507812 1015.875 1043.578125 1016.386719 1043.628906 C 1016.894531 1043.675781 1017.410156 1043.699219 1017.921875 1043.695312 L 1157.164062 1043.695312 C 1158.191406 1043.703125 1159.207031 1043.605469 1160.214844 1043.410156 C 1161.222656 1043.210938 1162.203125 1042.917969 1163.152344 1042.53125 C 1164.101562 1042.140625 1165.003906 1041.660156 1165.859375 1041.09375 C 1166.710938 1040.527344 1167.503906 1039.878906 1168.230469 1039.15625 C 1168.957031 1038.429688 1169.609375 1037.644531 1170.179688 1036.789062 C 1170.75 1035.9375 1171.234375 1035.039062 1171.628906 1034.089844 C 1172.023438 1033.140625 1172.320312 1032.164062 1172.519531 1031.160156 C 1172.722656 1030.152344 1172.820312 1029.136719 1172.820312 1028.109375 Z M 1172.820312 1028.109375 " fill-opacity="1" fill-rule="nonzero"/></g><g transform="matrix(1, 0, 0, 1, 0, -0.000000000000101068)"><g clip-path="url(#ed0ebedb60)"><g fill="#98a5a5" fill-opacity="1"><g transform="translate(-28.937801, 1102.634538)"><g><path d="M 480.4375 -697.109375 C 642.820312 -697.109375 724.015625 -603.800781 724.015625 -417.1875 L 724.015625 0 L 555.796875 0 L 555.796875 -409.109375 C 555.796875 -462.941406 545.476562 -502.191406 524.84375 -526.859375 C 504.207031 -551.535156 472.359375 -563.875 429.296875 -563.875 C 378.160156 -563.875 336.890625 -547.5 305.484375 -514.75 C 274.085938 -482.007812 258.390625 -438.722656 258.390625 -384.890625 L 258.390625 0 L 91.515625 0 L 91.515625 -487.171875 C 91.515625 -558.941406 87.925781 -623.085938 80.75 -679.609375 L 238.203125 -679.609375 L 250.3125 -567.90625 C 273.632812 -609.175781 305.257812 -641.023438 345.1875 -663.453125 C 385.113281 -685.890625 430.195312 -697.109375 480.4375 -697.109375 Z M 480.4375 -697.109375 "/></g></g></g></g></g></svg>